<?xml version="1.0" encoding="UTF-8"?>
<!DOCTYPE svg PUBLIC "-//W3C//DTD SVG 1.1//EN" "http://www.w3.org/Graphics/SVG/1.1/DTD/svg11.dtd">
<svg xmlns="http://www.w3.org/2000/svg" version="1.1" width="782px" height="781px" style="shape-rendering:geometricPrecision; text-rendering:geometricPrecision; image-rendering:optimizeQuality; fill-rule:evenodd; clip-rule:evenodd" xmlns:xlink="http://www.w3.org/1999/xlink">
<g><path style="opacity:1" fill="#969696" d="M -0.5,-0.5 C 260.167,-0.5 520.833,-0.5 781.5,-0.5C 781.5,259.833 781.5,520.167 781.5,780.5C 520.833,780.5 260.167,780.5 -0.5,780.5C -0.5,520.167 -0.5,259.833 -0.5,-0.5 Z"/></g>
<g><path style="opacity:1" fill="#fdfdfd" d="M 256.5,117.5 C 256.5,117.833 256.5,118.167 256.5,118.5C 185.02,160.421 139.52,221.754 120,302.5C 114.152,329.57 112.319,356.903 114.5,384.5C 114.335,388.182 114.501,391.848 115,395.5C 115.232,396.737 115.732,397.737 116.5,398.5C 132.654,501.464 187.987,574.631 282.5,618C 323.712,635.198 366.712,642.031 411.5,638.5C 417.739,638.724 423.739,638.057 429.5,636.5C 433.382,635.197 437.382,634.53 441.5,634.5C 444.152,634.59 446.485,633.924 448.5,632.5C 542.306,609.537 608.139,553.537 646,464.5C 650.149,451.89 653.982,439.223 657.5,426.5C 658.768,424.095 659.435,421.428 659.5,418.5C 677.004,313.399 647.004,224.565 569.5,152C 560.623,144.951 551.623,138.117 542.5,131.5C 543.209,130.596 544.209,130.263 545.5,130.5C 552.443,134.777 559.11,139.444 565.5,144.5C 565.56,145.043 565.893,145.376 566.5,145.5C 567.499,132.183 567.833,118.85 567.5,105.5C 567.5,101.167 567.5,96.8333 567.5,92.5C 568.167,89.8333 568.833,87.1667 569.5,84.5C 579.571,100.427 589.071,116.761 598,133.5C 599.97,147.037 594.136,154.704 580.5,156.5C 591.69,166.523 602.023,177.357 611.5,189C 612.483,189.591 613.15,189.257 613.5,188C 612.363,184.843 612.363,181.677 613.5,178.5C 614.924,176.485 615.59,174.152 615.5,171.5C 618.032,160.765 620.865,150.098 624,139.5C 625.541,134.375 627.374,129.375 629.5,124.5C 635.521,140.883 640.688,157.549 645,174.5C 649.636,189.576 644.303,198.576 629,201.5C 626.363,201.343 623.863,200.677 621.5,199.5C 621.167,199.833 620.833,200.167 620.5,200.5C 630.752,213.928 639.586,228.261 647,243.5C 648.123,236.804 650.457,230.471 654,224.5C 662.26,210.306 670.76,196.306 679.5,182.5C 680.167,185.5 680.833,188.5 681.5,191.5C 681.5,194.5 681.5,197.5 681.5,200.5C 682.22,215.155 682.553,229.822 682.5,244.5C 679.396,256.385 671.73,261.219 659.5,259C 657.131,258.464 655.131,257.297 653.5,255.5C 653.167,255.833 652.833,256.167 652.5,256.5C 658.902,271.103 664.236,286.103 668.5,301.5C 683.518,284.816 699.184,268.816 715.5,253.5C 716.404,254.209 716.737,255.209 716.5,256.5C 713.381,270.379 710.548,284.379 708,298.5C 705.92,305.539 703.587,312.539 701,319.5C 695.556,326.539 688.39,329.039 679.5,327C 676.827,325.999 674.493,324.499 672.5,322.5C 672.167,323 671.833,323.5 671.5,324C 674.188,338.71 675.854,353.543 676.5,368.5C 695.424,355.226 715.091,343.893 735.5,334.5C 725.859,354.449 715.692,374.116 705,393.5C 698.852,400.993 691.018,403.493 681.5,401C 679.301,399.303 676.968,397.803 674.5,396.5C 672.187,410.53 670.02,424.53 668,438.5C 687.696,432.162 707.529,426.328 727.5,421C 729.259,420.202 730.926,420.369 732.5,421.5C 717.032,440.135 700.698,457.968 683.5,475C 678.128,477.442 672.461,478.109 666.5,477C 663.268,475.77 660.601,473.77 658.5,471C 657.833,470.333 657.167,470.333 656.5,471C 651.454,482.64 646.121,494.14 640.5,505.5C 639.596,506.209 639.263,507.209 639.5,508.5C 641.735,508.795 643.735,508.461 645.5,507.5C 647.5,507.5 649.5,507.5 651.5,507.5C 670.008,507.17 688.341,507.503 706.5,508.5C 691.369,519.237 676.036,529.737 660.5,540C 654.992,543.255 649.325,546.255 643.5,549C 639.167,549.667 634.833,549.667 630.5,549C 626.069,546.404 622.069,543.238 618.5,539.5C 609.873,550.129 600.873,560.462 591.5,570.5C 614.314,575.801 636.981,581.635 659.5,588C 639.616,595.738 619.616,603.072 599.5,610C 593.929,611.614 588.262,612.781 582.5,613.5C 571.659,612.666 564.659,607 561.5,596.5C 549.343,605.414 536.677,613.581 523.5,621C 546.248,632.207 568.581,644.207 590.5,657C 562.596,660.62 534.596,662.62 506.5,663C 493.975,658.614 488.308,649.781 489.5,636.5C 472.417,642.104 455.084,646.771 437.5,650.5C 460.206,668.366 481.873,687.532 502.5,708C 473.423,705.398 444.757,700.398 416.5,693C 406.423,686.116 402.589,676.616 405,664.5C 406.527,660.614 408.694,657.114 411.5,654C 396.5,653.333 381.5,653.333 366.5,654C 376.795,665.32 377.129,676.986 367.5,689C 363.921,691.754 359.921,693.754 355.5,695C 341.135,698.348 326.802,701.181 312.5,703.5C 307.878,703.156 303.545,703.823 299.5,705.5C 291.829,706.741 284.162,707.575 276.5,708C 296.513,687.194 317.846,668.027 340.5,650.5C 322.87,646.844 305.536,642.177 288.5,636.5C 289.891,649.929 284.224,658.763 271.5,663C 243.674,662.897 216.007,660.73 188.5,656.5C 210.086,643.874 232.086,632.041 254.5,621C 241.73,613.227 229.23,605.06 217,596.5C 213.367,607.301 205.867,612.967 194.5,613.5C 169.357,606.878 144.69,598.712 120.5,589C 119.167,588.333 119.167,587.667 120.5,587C 141.67,581.109 163.004,575.942 184.5,571.5C 185.932,571.267 186.432,570.6 186,569.5C 176.753,560.257 168.253,550.424 160.5,540C 159.833,539.333 159.167,539.333 158.5,540C 152.214,548.295 143.881,551.295 133.5,549C 112.451,536.483 92.1176,522.983 72.5,508.5C 90.6591,507.503 108.992,507.17 127.5,507.5C 131.167,507.5 134.833,507.5 138.5,507.5C 133.035,495.119 127.368,482.785 121.5,470.5C 114.368,477.518 106.035,479.351 96.5,476C 77.8991,458.902 60.8991,440.402 45.5,420.5C 55.7871,422.899 66.4538,425.399 77.5,428C 88.7433,431.811 100.077,435.311 111.5,438.5C 108.195,424.642 105.529,410.642 103.5,396.5C 93.6624,404.83 84.1624,404.497 75,395.5C 63.5298,375.395 52.6964,354.895 42.5,334C 62.6619,344.087 82.3286,355.254 101.5,367.5C 101.56,368.043 101.893,368.376 102.5,368.5C 103.496,362.202 103.83,355.868 103.5,349.5C 104.138,341.287 105.138,333.121 106.5,325C 106.167,324.5 105.833,324 105.5,323.5C 91.9738,331.324 81.8071,328.324 75,314.5C 74.2938,310.006 73.1272,305.673 71.5,301.5C 71.7062,298.505 71.0395,295.838 69.5,293.5C 66.6677,279.843 64.1677,266.176 62,252.5C 79.3606,268.527 95.6939,284.86 111,301.5C 114.046,286.029 118.88,271.196 125.5,257C 125.333,256.5 125.167,256 125,255.5C 111.92,263.23 102.253,260.23 96,246.5C 95.1283,225.1 95.9616,203.767 98.5,182.5C 111.787,201.83 123.287,221.497 133,241.5C 140.244,226.668 148.744,212.668 158.5,199.5C 158.333,199.167 158.167,198.833 158,198.5C 147.029,204.065 138.695,201.398 133,190.5C 132.333,186.5 132.333,182.5 133,178.5C 136.814,160.228 142.314,142.561 149.5,125.5C 157.784,146.173 163.284,167.507 166,189.5C 176.47,178.029 187.303,166.863 198.5,156C 186.379,155.712 180.046,149.545 179.5,137.5C 188.145,118.677 198.312,100.677 210,83.5C 212.017,103.96 212.85,124.294 212.5,144.5C 226.22,133.973 240.887,124.973 256.5,117.5 Z"/></g>
<g><path style="opacity:1" fill="#d3d3d3" d="M 569.5,84.5 C 568.833,87.1667 568.167,89.8333 567.5,92.5C 567.183,89.4281 567.516,86.4281 568.5,83.5C 569.107,83.6236 569.44,83.9569 569.5,84.5 Z"/></g>
<g><path style="opacity:1" fill="#e7e7e7" d="M 567.5,105.5 C 567.833,118.85 567.499,132.183 566.5,145.5C 565.893,145.376 565.56,145.043 565.5,144.5C 566.167,131.5 566.833,118.5 567.5,105.5 Z"/></g>
<g><path style="opacity:1" fill="#d3d3d3" d="M 256.5,118.5 C 256.5,118.167 256.5,117.833 256.5,117.5C 260.586,114.732 264.92,112.232 269.5,110C 270.833,109.333 272.167,109.333 273.5,110C 267.807,112.847 262.14,115.68 256.5,118.5 Z"/></g>
<g><path style="opacity:1" fill="#e8e8e8" d="M 545.5,130.5 C 544.209,130.263 543.209,130.596 542.5,131.5C 530.785,123.308 518.452,116.141 505.5,110C 506.5,109.333 507.5,109.333 508.5,110C 521.423,116.008 533.757,122.841 545.5,130.5 Z"/></g>
<g><path style="opacity:1" fill="#d2d2d2" d="M 410.5,172.5 C 391.16,172.518 371.827,172.851 352.5,173.5C 371.811,171.467 391.145,171.134 410.5,172.5 Z"/></g>
<g><path style="opacity:1" fill="#fefefe" d="M 410.5,172.5 C 422.348,173.004 434.014,174.67 445.5,177.5C 447.515,178.924 449.848,179.59 452.5,179.5C 493.31,193.099 512.144,221.432 509,264.5C 506.328,293.359 492.828,315.526 468.5,331C 459.376,335.897 450.043,340.23 440.5,344C 468.786,348.387 492.286,361.221 511,382.5C 517.043,390.254 521.21,398.92 523.5,408.5C 523.41,411.152 524.076,413.485 525.5,415.5C 533.247,469.518 512.581,508.018 463.5,531C 444.538,538.551 424.871,543.217 404.5,545C 353.863,543.912 303.196,543.412 252.5,543.5C 251.886,539.865 251.552,536.198 251.5,532.5C 262.791,529.237 274.124,526.071 285.5,523C 288.381,521.749 290.214,519.583 291,516.5C 291.667,411.5 291.667,306.5 291,201.5C 289.5,198.667 287.333,196.5 284.5,195C 273.694,192.065 263.028,188.731 252.5,185C 251.54,181.27 251.207,177.437 251.5,173.5C 285.157,174.72 318.824,174.72 352.5,173.5C 371.827,172.851 391.16,172.518 410.5,172.5 Z"/></g>
<g><path style="opacity:1" fill="#b8b8b8" d="M 445.5,177.5 C 448.152,177.41 450.485,178.076 452.5,179.5C 449.848,179.59 447.515,178.924 445.5,177.5 Z"/></g>
<g><path style="opacity:1" fill="#d8d8d8" d="M 615.5,171.5 C 615.59,174.152 614.924,176.485 613.5,178.5C 613.41,175.848 614.076,173.515 615.5,171.5 Z"/></g>
<g><path style="opacity:1" fill="#cdcdcd" d="M 679.5,182.5 C 679.56,181.957 679.893,181.624 680.5,181.5C 681.487,184.768 681.82,188.102 681.5,191.5C 680.833,188.5 680.167,185.5 679.5,182.5 Z"/></g>
<g><path style="opacity:1" fill="#969696" d="M 453.5,245.5 C 454.218,254.482 454.552,263.482 454.5,272.5C 452.06,312.107 431.06,333.941 391.5,338C 375.17,338.5 358.837,338.667 342.5,338.5C 342.5,290.833 342.5,243.167 342.5,195.5C 359.156,194.522 375.823,194.355 392.5,195C 411.757,196.717 428.257,204.217 442,217.5C 447.963,225.962 451.796,235.295 453.5,245.5 Z"/></g>
<g><path style="opacity:1" fill="#b8b8b8" d="M 681.5,200.5 C 682.996,209.117 683.663,217.951 683.5,227C 683.499,233.01 683.166,238.843 682.5,244.5C 682.553,229.822 682.22,215.155 681.5,200.5 Z"/></g>
<g><path style="opacity:1" fill="#c5c5c5" d="M 715.5,253.5 C 716.472,252.249 717.139,252.582 717.5,254.5C 717.457,255.416 717.124,256.083 716.5,256.5C 716.737,255.209 716.404,254.209 715.5,253.5 Z"/></g>
<g><path style="opacity:1" fill="#c3c3c3" d="M 453.5,245.5 C 454.931,250.933 455.598,256.599 455.5,262.5C 455.498,266.018 455.165,269.351 454.5,272.5C 454.552,263.482 454.218,254.482 453.5,245.5 Z"/></g>
<g><path style="opacity:1" fill="#b9b9b9" d="M 69.5,293.5 C 71.0395,295.838 71.7062,298.505 71.5,301.5C 70.2318,299.095 69.5651,296.428 69.5,293.5 Z"/></g>
<g><path style="opacity:1" fill="#969696" d="M 382.5,359.5 C 385.167,359.5 387.833,359.5 390.5,359.5C 393.909,360.903 397.575,361.57 401.5,361.5C 419.417,363.414 435.417,369.914 449.5,381C 460.147,392.117 466.481,405.284 468.5,420.5C 469.286,431.482 469.619,442.482 469.5,453.5C 467.264,478.495 455.931,497.995 435.5,512C 409.818,524.289 382.818,528.122 354.5,523.5C 352.485,522.076 350.152,521.41 347.5,521.5C 346.041,521.567 344.708,521.234 343.5,520.5C 343.5,467.167 343.5,413.833 343.5,360.5C 356.487,359.762 369.487,359.429 382.5,359.5 Z"/></g>
<g><path style="opacity:1" fill="#bebebe" d="M 382.5,359.5 C 369.487,359.429 356.487,359.762 343.5,360.5C 343.5,413.833 343.5,467.167 343.5,520.5C 342.501,467.003 342.168,413.336 342.5,359.5C 355.98,358.233 369.314,358.233 382.5,359.5 Z"/></g>
<g><path style="opacity:1" fill="#b9b9b9" d="M 390.5,359.5 C 394.425,359.43 398.091,360.097 401.5,361.5C 397.575,361.57 393.909,360.903 390.5,359.5 Z"/></g>
<g><path style="opacity:1" fill="#bdbdbd" d="M 103.5,349.5 C 103.83,355.868 103.496,362.202 102.5,368.5C 101.893,368.376 101.56,368.043 101.5,367.5C 102.167,361.5 102.833,355.5 103.5,349.5 Z"/></g>
<g><path style="opacity:1" fill="#dddddd" d="M 114.5,384.5 C 115.521,388.98 116.187,393.647 116.5,398.5C 115.732,397.737 115.232,396.737 115,395.5C 114.501,391.848 114.335,388.182 114.5,384.5 Z"/></g>
<g><path style="opacity:1" fill="#d3d3d3" d="M 523.5,408.5 C 524.924,410.515 525.59,412.848 525.5,415.5C 524.076,413.485 523.41,411.152 523.5,408.5 Z"/></g>
<g><path style="opacity:1" fill="#d9d9d9" d="M 659.5,418.5 C 659.435,421.428 658.768,424.095 657.5,426.5C 657.294,423.505 657.96,420.838 659.5,418.5 Z"/></g>
<g><path style="opacity:1" fill="#d3d3d3" d="M 468.5,420.5 C 469.987,426.936 470.654,433.602 470.5,440.5C 470.499,445.013 470.166,449.347 469.5,453.5C 469.619,442.482 469.286,431.482 468.5,420.5 Z"/></g>
<g><path style="opacity:1" fill="#d0d0d0" d="M 127.5,507.5 C 108.992,507.17 90.6591,507.503 72.5,508.5C 71.7109,508.217 71.0442,507.717 70.5,507C 89.6711,506.171 108.671,506.338 127.5,507.5 Z"/></g>
<g><path style="opacity:1" fill="#d0d0d0" d="M 651.5,507.5 C 670.004,506.172 688.671,506.172 707.5,507.5C 707.376,508.107 707.043,508.44 706.5,508.5C 688.341,507.503 670.008,507.17 651.5,507.5 Z"/></g>
<g><path style="opacity:1" fill="#d1d1d1" d="M 640.5,505.5 C 641.552,507.256 643.219,507.923 645.5,507.5C 643.735,508.461 641.735,508.795 639.5,508.5C 639.263,507.209 639.596,506.209 640.5,505.5 Z"/></g>
<g><path style="opacity:1" fill="#c5c5c5" d="M 347.5,521.5 C 350.152,521.41 352.485,522.076 354.5,523.5C 351.848,523.59 349.515,522.924 347.5,521.5 Z"/></g>
<g><path style="opacity:1" fill="#d0d0d0" d="M 448.5,632.5 C 446.485,633.924 444.152,634.59 441.5,634.5C 443.515,633.076 445.848,632.41 448.5,632.5 Z"/></g>
<g><path style="opacity:1" fill="#e0e0e0" d="M 429.5,636.5 C 423.739,638.057 417.739,638.724 411.5,638.5C 417.288,637.19 423.288,636.523 429.5,636.5 Z"/></g>
<g><path style="opacity:1" fill="#b8b8b8" d="M 312.5,703.5 C 308.361,704.563 304.028,705.23 299.5,705.5C 303.545,703.823 307.878,703.156 312.5,703.5 Z"/></g>
</svg>
